<?xml version="1.0" encoding="UTF-8" standalone="no"?>
<svg
   xmlns:dc="http://purl.org/dc/elements/1.1/"
   xmlns:cc="http://creativecommons.org/ns#"
   xmlns:rdf="http://www.w3.org/1999/02/22-rdf-syntax-ns#"
   xmlns:svg="http://www.w3.org/2000/svg"
   xmlns="http://www.w3.org/2000/svg"
   xmlns:sodipodi="http://sodipodi.sourceforge.net/DTD/sodipodi-0.dtd"
   xmlns:inkscape="http://www.inkscape.org/namespaces/inkscape"
   id="svg2"
   viewBox="0 0 128 128"
   version="1.0"
   inkscape:version="0.48.4 r9939"
   width="100%"
   height="100%"
   sodipodi:docname="Machovka_rabbit.svg"
   inkscape:export-filename="/home/aquilax/projects/chromagochi/assets/img/icon128.png"
   inkscape:export-xdpi="90.621857"
   inkscape:export-ydpi="90.621857">
  <defs
     id="defs3053" />
  <sodipodi:namedview
     pagecolor="#ffffff"
     bordercolor="#666666"
     borderopacity="1"
     objecttolerance="10"
     gridtolerance="10"
     guidetolerance="10"
     inkscape:pageopacity="0"
     inkscape:pageshadow="2"
     inkscape:window-width="999"
     inkscape:window-height="558"
     id="namedview3051"
     showgrid="false"
     inkscape:zoom="1"
     inkscape:cx="339.775"
     inkscape:cy="164.575"
     inkscape:window-x="25"
     inkscape:window-y="0"
     inkscape:window-maximized="1"
     inkscape:current-layer="svg2" />
  <g
     id="layer1"
     transform="matrix(0.18550355,0,0,0.17423396,-3.1489778,-19.87861)">
    <g
       id="g1876"
       transform="matrix(1.2217,0,0,1.271,57.996,-34.854)">
      <path
         id="path4336"
         d="m 515.18,629.61 a 61.115,56.063917 0 1 1 -122.23,0 61.115,56.063917 0 1 1 122.23,0 z"
         transform="translate(8.0812,1.0102)"
         inkscape:connector-curvature="0"
         style="fill:#ffffff;stroke:#000000;stroke-width:16;stroke-linecap:round;stroke-linejoin:round" />
      <path
         id="path4334"
         d="m 105.64,377.45 134.5,-160.62 c 49.23,-60 -76.79,-124.91 -92.83,-46.99 l -41.67,207.61 z"
         inkscape:connector-curvature="0"
         style="fill:#ffffff;fill-rule:evenodd;stroke:#000000;stroke-width:16;stroke-linecap:round;stroke-linejoin:round" />
      <path
         id="path3574"
         d="M 89.348,385.32 -10.518,201.15 C -46.833,132.56 89.582,94.01 89.802,173.57 l -0.454,211.75 z"
         inkscape:connector-curvature="0"
         style="fill:#ffffff;fill-rule:evenodd;stroke:#000000;stroke-width:16;stroke-linecap:round;stroke-linejoin:round" />
      <path
         id="path1291"
         d="m 122.86,686.65 c 0,-58.1 1.01,-65.68 1.01,-123.78 -172.74,5.72 -187.89,-229.99 -1.01,-233.36 217.23,1.74 330.41,41.87 328.44,356.76 -200.06,0.13 -128.39,0.25 -328.44,0.38 z"
         inkscape:connector-curvature="0"
         style="fill:#ffffff;fill-rule:evenodd;stroke:#000000;stroke-width:17;stroke-linejoin:round" />
      <path
         id="path2052"
         d="m 140.41,485.67 a 60.105,21.213353 0 1 1 -120.21,0 60.105,21.213353 0 1 1 120.21,0 z"
         transform="matrix(0.71429,0,0,0.97619,7.7926,12.069)"
         inkscape:connector-curvature="0"
         style="fill:#ffcccc" />
      <path
         id="path2812"
         d="m 45.457,398.29 a 21.213,21.718 0 1 1 -42.426,0 21.213,21.718 0 1 1 42.426,0 z"
         inkscape:connector-curvature="0" />
      <path
         id="path3572"
         d="m 45.457,398.29 a 21.213,21.718 0 1 1 -42.426,0 21.213,21.718 0 1 1 42.426,0 z"
         transform="translate(83.843,7.5761)"
         inkscape:connector-curvature="0" />
    </g>
  </g>
  <metadata
     id="metadata3049">
    <rdf:RDF>
      <cc:Work>
        <dc:format>image/svg+xml</dc:format>
        <dc:type
           rdf:resource="http://purl.org/dc/dcmitype/StillImage" />
        <cc:license
           rdf:resource="http://creativecommons.org/licenses/publicdomain/" />
        <dc:publisher>
          <cc:Agent
             rdf:about="http://openclipart.org/">
            <dc:title>Openclipart</dc:title>
          </cc:Agent>
        </dc:publisher>
        <dc:title></dc:title>
        <dc:date>2007-01-01T04:28:02</dc:date>
        <dc:description>animal, animal, bunny, bunny, cartoon, cartoon, clip art, clipart, icon, icon, image, media, pet, pet, png, public domain, rabbit, rabbit, svg, white, white, </dc:description>
        <dc:source>http://openclipart.org/detail/2690/rabbit-by-machovka</dc:source>
        <dc:creator>
          <cc:Agent>
            <dc:title>Machovka</dc:title>
          </cc:Agent>
        </dc:creator>
        <dc:subject>
          <rdf:Bag>
            <rdf:li>animal</rdf:li>
            <rdf:li>bunny</rdf:li>
            <rdf:li>cartoon</rdf:li>
            <rdf:li>clip art</rdf:li>
            <rdf:li>clipart</rdf:li>
            <rdf:li>icon</rdf:li>
            <rdf:li>image</rdf:li>
            <rdf:li>media</rdf:li>
            <rdf:li>pet</rdf:li>
            <rdf:li>png</rdf:li>
            <rdf:li>public domain</rdf:li>
            <rdf:li>rabbit</rdf:li>
            <rdf:li>svg</rdf:li>
            <rdf:li>white</rdf:li>
          </rdf:Bag>
        </dc:subject>
      </cc:Work>
      <cc:License
         rdf:about="http://creativecommons.org/licenses/publicdomain/">
        <cc:permits
           rdf:resource="http://creativecommons.org/ns#Reproduction" />
        <cc:permits
           rdf:resource="http://creativecommons.org/ns#Distribution" />
        <cc:permits
           rdf:resource="http://creativecommons.org/ns#DerivativeWorks" />
      </cc:License>
    </rdf:RDF>
  </metadata>
</svg>
